<svg xmlns="http://www.w3.org/2000/svg" width="192" height="34" fill="none" viewBox="0 0 192 34">
    <path fill="#7530FE" d="M33.177 20.948c-.055-1.59-.439-3.18-1.206-4.551a9.5 9.5 0 0 0-3.236-3.51c-2.029-1.316-4.387-1.864-6.58-2.193-.494-.055-.988-.11-1.481-.22l5.045-8.72L22.593 0 20.73 3.235a19.6 19.6 0 0 0-2.633-1.425C17 1.316 15.848.823 14.477.713c-1.206-.11-2.577-.22-3.893.22a6.4 6.4 0 0 0-1.097.438c-1.92.877-3.29 2.303-3.784 4.003a7.4 7.4 0 0 0-.274 1.92 6.93 6.93 0 0 0-3.071 3.07c-.713 1.536-.713 3.181-.055 4.607.439.987 1.316 1.864 2.413 2.523a12.2 12.2 0 0 0 3.893 1.425c.933.22 1.81.33 2.797.44l-.877 1.534a19 19 0 0 0-2.523-.493c-2.468-.22-4.77.494-6.361 1.974a4.73 4.73 0 0 0-1.536 2.523 4.25 4.25 0 0 0 .22 2.468c.274.712.767 1.37 1.316 1.864.877.768 2.029 1.316 3.564 1.59.823.165 1.7.22 2.633.22 1.096 0 2.303-.11 3.619-.384 1.48-.274 2.906-.713 4.332-1.097.384-.11.768-.22 1.097-.329.603-.165 1.206-.384 1.865-.548q.054.054.11.054c1.535.933 3.344 1.975 5.428 2.084h.384c2.139 0 4.278-.987 5.813-2.687 1.7-1.92 2.687-4.606 2.687-7.184q-.055 0 0 0M9.103 6.416c.274-.987 1.261-1.535 1.81-1.81a4 4 0 0 1 .713-.274c.712-.22 1.645-.164 2.522-.055.823.055 1.59.384 2.468.823a15 15 0 0 1 2.303 1.261l-2.193 3.784q-1.317-.083-2.797-.164h-.11c-.932-.055-1.755-.11-2.577-.275-.549-.11-1.262-.383-1.755-.932-.439-.603-.603-1.535-.384-2.358m3.62 9.542c-2.14-.22-4.333-.439-6.252-1.48-.494-.275-.823-.604-.987-.933-.22-.493-.22-.987.054-1.535.22-.439.604-.878 1.042-1.207.11.11.165.22.275.33.877.932 2.083 1.644 3.51 1.974 1.096.274 2.193.329 3.235.383h.11c.328 0 .657.055.986.055l-1.425 2.468c-.11-.055-.33-.055-.549-.055m-1.975 11.297c-1.864.384-3.455.384-4.88.11-.823-.165-1.481-.44-1.865-.768-.33-.274-.494-.658-.439-.933.055-.164.22-.438.439-.658.822-.767 2.193-1.151 3.674-1.041 1.536.11 3.126.712 4.552 1.37.658.275 1.37.604 2.029.933a21 21 0 0 1-3.51.987m10.913-4.716c-.274.713-1.097 1.425-2.303 2.084l-.33.164a57 57 0 0 0-5.154-2.577l1.37-2.413c.165 0 .33.055.494.055.823.11 1.646.219 2.468.274 1.536.164 2.578.493 3.126.932.439.384.548.932.329 1.48m6.142 3.235c-.932.987-2.194 1.59-3.345 1.536a5.1 5.1 0 0 1-1.865-.549c1.152-.822 1.92-1.81 2.358-2.906.384-.932.439-1.974.275-2.907-.22-.987-.768-1.864-1.536-2.577q-.987-.905-2.632-1.316c-.713-.22-1.48-.33-2.468-.439-.439-.055-.932-.11-1.371-.164l1.48-2.578c.988.11 1.975.22 2.852.384 1.81.274 3.73.658 5.21 1.645 1.7 1.097 2.797 3.126 2.852 5.155.054 1.645-.658 3.455-1.81 4.716"/>
    <path fill="#282828" d="M68 5.758 60.377 26.87h-3.345L54.4 20.235l-2.249-6.69-2.193 6.745-2.578 6.58h-3.4L36.248 5.759h4.442l4.99 15.245 5.155-15.245h2.578l5.264 15.245 4.826-15.245zm14.641 14.971H71.015c.22 1.865 1.865 3.18 4.442 3.18 1.371 0 3.126-.493 4.003-1.37l2.359 2.303c-1.59 1.645-4.113 2.413-6.417 2.413-5.154 0-8.17-3.18-8.17-7.952 0-4.77 3.07-7.787 7.896-7.787 4.99 0 8.116 3.071 7.513 9.213m-11.57-3.016h8.006c-.22-1.92-1.755-2.907-3.84-2.907-1.973 0-3.618.933-4.167 2.907m30.216-8.5-3.18 1.645c-.713-1.206-2.742-2.358-4.99-2.358-2.962 0-4.388 1.261-4.388 2.797 0 1.864 2.194 2.358 4.716 2.632 4.388.548 8.5 1.7 8.5 6.745 0 4.716-4.167 6.745-8.883 6.745-4.333 0-7.623-1.316-9.213-5.21l3.345-1.7c.932 2.304 3.4 3.346 5.922 3.346 2.523 0 4.881-.878 4.881-3.18 0-1.975-2.084-2.798-4.88-3.127-4.333-.493-8.281-1.645-8.281-6.416 0-4.332 4.277-6.142 8.17-6.142 3.291 0 6.691.933 8.281 4.223m3.017-3.455h3.674v8.28c1.316-1.7 2.961-2.248 4.661-2.248 4.223 0 6.087 2.852 6.087 7.239v7.842h-3.674v-7.842c0-2.742-1.426-3.839-3.4-3.839-2.193 0-3.674 1.865-3.674 4.058v7.623h-3.674zm24.403 5.922c4.717 0 7.788 3.51 7.788 7.733s-2.907 7.732-7.733 7.732-7.732-3.455-7.732-7.732c-.055-4.223 2.907-7.732 7.677-7.732m0 3.346c-2.632 0-4.058 2.193-4.058 4.387s1.371 4.387 4.058 4.387c2.688 0 4.059-2.139 4.059-4.387s-1.59-4.387-4.059-4.387m18.481 8.608c2.522 0 4.222-1.92 4.222-4.222 0-2.304-1.59-4.223-4.222-4.223s-4.223 1.92-4.223 4.223 1.7 4.222 4.223 4.222m-4.552 10.036h-3.674V11.955h3.455l.22 2.029c1.15-1.646 3.125-2.358 4.825-2.358 4.606 0 7.623 3.4 7.623 7.787s-2.742 7.787-7.513 7.787c-1.59 0-3.894-.494-4.936-2.139z"/>
    <path fill="#7530FE" d="m169.616 5.703-9.816 21.88h4.497l1.864-4.112h11.461l1.865 4.113h4.497l-9.817-21.88zm-1.81 13.93 4.058-9.323 4.058 9.322z"/>
    <rect width="4.113" height="21.881" x="186.013" y="5.703" fill="#7530FE" rx="0"/>
</svg>